<svg xmlns="http://www.w3.org/2000/svg" xmlns:inkscape="http://www.inkscape.org/namespaces/inkscape" width="800" height="1048.13" viewBox="-1432.8 -1256 8065.6 10567.2" font-family="Helvetica, Arial, sans-serif">
<defs><pattern id="poche" patternUnits="userSpaceOnUse" width="88.4" height="88.4" patternTransform="rotate(45)"><rect width="88.4" height="88.4" fill="#e9e4db"/><line x1="0" y1="0" x2="0" y2="88.4" stroke="#b9b1a4" stroke-width="7.62"/></pattern></defs>
<rect x="-1432.8" y="-1256" width="8065.6" height="10567.2" fill="#ffffff"/>
<g id="A-FLOR" inkscape:groupmode="layer" inkscape:label="A-FLOR">
<polygon points="0,0 3600,0 3600,6600 0,6600" fill="#fbfaf7"/>
<polygon points="3600,0 5200,0 5200,4000 3600,4000" fill="#fbfaf7"/>
<polygon points="3600,4000 5200,4000 5200,6600 3600,6600" fill="#fbfaf7"/>
</g>
<g id="A-FURN" inkscape:groupmode="layer" inkscape:label="A-FURN">
<polygon points="300,100 1100,100 1100,700 300,700" fill="#f4f2ee" stroke="#6c6864" stroke-width="10.88"/>
<path d="M 470.05,220 L 929.95,220 A 43.8 43.8 0 0 1 973.75,263.8 L 973.75,614.2 A 43.8 43.8 0 0 1 929.95,658 L 470.05,658 A 43.8 43.8 0 0 1 426.25,614.2 L 426.25,263.8 A 43.8 43.8 0 0 1 470.05,220 Z" fill="#ffffff" stroke="#6c6864" stroke-width="10.88"/>
<circle cx="700" cy="439" r="28.47" fill="#ffffff" stroke="#a8a29a" stroke-width="7.86"/>
<circle cx="700" cy="163" r="21" fill="none" stroke="#a8a29a" stroke-width="7.86"/>
<line x1="700" y1="184" x2="700" y2="307.6" stroke="#a8a29a" stroke-width="7.86"/>
<polygon points="1250,100 1850,100 1850,700 1250,700" fill="#f4f2ee" stroke="#6c6864" stroke-width="10.88"/>
<path d="M 1301,136 L 1799,136 A 15 15 0 0 1 1814,151 L 1814,529 A 15 15 0 0 1 1799,544 L 1301,544 A 15 15 0 0 1 1286,529 L 1286,151 A 15 15 0 0 1 1301,136 Z" fill="none" stroke="#a8a29a" stroke-width="7.86"/>
<circle cx="1424.12" cy="244.12" r="76.7" fill="none" stroke="#a8a29a" stroke-width="7.86"/>
<circle cx="1424.12" cy="244.12" r="42.19" fill="none" stroke="#a8a29a" stroke-width="7.86"/>
<circle cx="1675.88" cy="244.12" r="76.7" fill="none" stroke="#a8a29a" stroke-width="7.86"/>
<circle cx="1675.88" cy="244.12" r="42.19" fill="none" stroke="#a8a29a" stroke-width="7.86"/>
<circle cx="1424.12" cy="435.88" r="55.61" fill="none" stroke="#a8a29a" stroke-width="7.86"/>
<circle cx="1424.12" cy="435.88" r="30.59" fill="none" stroke="#a8a29a" stroke-width="7.86"/>
<circle cx="1675.88" cy="435.88" r="55.61" fill="none" stroke="#a8a29a" stroke-width="7.86"/>
<circle cx="1675.88" cy="435.88" r="30.59" fill="none" stroke="#a8a29a" stroke-width="7.86"/>
<circle cx="1370" cy="637" r="18" fill="#a8a29a" stroke="#a8a29a" stroke-width="7.86"/>
<circle cx="1490" cy="637" r="18" fill="#a8a29a" stroke="#a8a29a" stroke-width="7.86"/>
<circle cx="1610" cy="637" r="18" fill="#a8a29a" stroke="#a8a29a" stroke-width="7.86"/>
<circle cx="1730" cy="637" r="18" fill="#a8a29a" stroke="#a8a29a" stroke-width="7.86"/>
<path d="M 2062,100 L 2638,100 A 12 12 0 0 1 2650,112 L 2650,738 A 12 12 0 0 1 2638,750 L 2062,750 A 12 12 0 0 1 2050,738 L 2050,112 A 12 12 0 0 1 2062,100 Z" fill="#f4f2ee" stroke="#6c6864" stroke-width="10.88"/>
<line x1="2050" y1="659" x2="2650" y2="659" stroke="#a8a29a" stroke-width="7.86"/>
<line x1="2254" y1="704.5" x2="2446" y2="704.5" stroke="#6c6864" stroke-width="10.88"/>
<path d="M 1779,6200 L 421,6200 A 21 21 0 0 1 400,6179 L 400,4321 A 21 21 0 0 1 421,4300 L 1779,4300 A 21 21 0 0 1 1800,4321 L 1800,6179 A 21 21 0 0 1 1779,6200 Z" fill="#f4f2ee" stroke="#6c6864" stroke-width="10.88"/>
<path d="M 1779,6200 L 421,6200 A 21 21 0 0 1 400,6179 L 400,6114.5 L 1800,6114.5 L 1800,6179 A 21 21 0 0 1 1779,6200 Z" fill="#f4f2ee" stroke="#6c6864" stroke-width="10.88"/>
<path d="M 1622.73,6057.5 L 1239.93,6057.5 A 102.6 102.6 0 0 1 1137.33,5954.9 L 1137.33,5818.1 A 102.6 102.6 0 0 1 1239.93,5715.5 L 1622.73,5715.5 A 102.6 102.6 0 0 1 1725.33,5818.1 L 1725.33,5954.9 A 102.6 102.6 0 0 1 1622.73,6057.5 Z" fill="#ffffff" stroke="#a8a29a" stroke-width="7.86"/>
<path d="M 960.07,6057.5 L 577.27,6057.5 A 102.6 102.6 0 0 1 474.67,5954.9 L 474.67,5818.1 A 102.6 102.6 0 0 1 577.27,5715.5 L 960.07,5715.5 A 102.6 102.6 0 0 1 1062.67,5818.1 L 1062.67,5954.9 A 102.6 102.6 0 0 1 960.07,6057.5 Z" fill="#ffffff" stroke="#a8a29a" stroke-width="7.86"/>
<polygon points="1758,5630 442,5630 442,4566 666,4342 1758,4342" fill="#f4f2ee" stroke="#a8a29a" stroke-width="7.86"/>
<polygon points="1758,5630 442,5630 442,5440 1758,5440" fill="#ffffff" stroke="#a8a29a" stroke-width="7.86"/>
<polygon points="442,4566 666,4342 666,4566" fill="#ffffff" stroke="#a8a29a" stroke-width="7.86"/>
<path d="M 356,2900 L 1744,2900 A 56 56 0 0 1 1800,2956 L 1800,3644 A 56 56 0 0 1 1744,3700 L 356,3700 A 56 56 0 0 1 300,3644 L 300,2956 A 56 56 0 0 1 356,2900 Z" fill="#f4f2ee" stroke="#6c6864" stroke-width="10.88"/>
<path d="M 356,2900 L 420,2900 L 420,3646 A 54 54 0 0 1 366,3700 L 356,3700 A 56 56 0 0 1 300,3644 L 300,2956 A 56 56 0 0 1 356,2900 Z" fill="#f4f2ee" stroke="#6c6864" stroke-width="10.88"/>
<path d="M 1680,2900 L 1744,2900 A 56 56 0 0 1 1800,2956 L 1800,3644 A 56 56 0 0 1 1744,3700 L 1734,3700 A 54 54 0 0 1 1680,3646 L 1680,2900 Z" fill="#f4f2ee" stroke="#6c6864" stroke-width="10.88"/>
<path d="M 462.4,2940 L 807.2,2940 A 28 28 0 0 1 835.2,2968 L 835.2,3032 A 28 28 0 0 1 807.2,3060 L 462.4,3060 A 28 28 0 0 1 434.4,3032 L 434.4,2968 A 28 28 0 0 1 462.4,2940 Z" fill="#ffffff" stroke="#a8a29a" stroke-width="7.86"/>
<path d="M 877.6,2940 L 1222.4,2940 A 28 28 0 0 1 1250.4,2968 L 1250.4,3032 A 28 28 0 0 1 1222.4,3060 L 877.6,3060 A 28 28 0 0 1 849.6,3032 L 849.6,2968 A 28 28 0 0 1 877.6,2940 Z" fill="#ffffff" stroke="#a8a29a" stroke-width="7.86"/>
<path d="M 1292.8,2940 L 1637.6,2940 A 28 28 0 0 1 1665.6,2968 L 1665.6,3032 A 28 28 0 0 1 1637.6,3060 L 1292.8,3060 A 28 28 0 0 1 1264.8,3032 L 1264.8,2968 A 28 28 0 0 1 1292.8,2940 Z" fill="#ffffff" stroke="#a8a29a" stroke-width="7.86"/>
<path d="M 470.4,3074.4 L 799.2,3074.4 A 36 36 0 0 1 835.2,3110.4 L 835.2,3628 A 36 36 0 0 1 799.2,3664 L 470.4,3664 A 36 36 0 0 1 434.4,3628 L 434.4,3110.4 A 36 36 0 0 1 470.4,3074.4 Z" fill="#ffffff" stroke="#a8a29a" stroke-width="7.86"/>
<path d="M 885.6,3074.4 L 1214.4,3074.4 A 36 36 0 0 1 1250.4,3110.4 L 1250.4,3628 A 36 36 0 0 1 1214.4,3664 L 885.6,3664 A 36 36 0 0 1 849.6,3628 L 849.6,3110.4 A 36 36 0 0 1 885.6,3074.4 Z" fill="#ffffff" stroke="#a8a29a" stroke-width="7.86"/>
<path d="M 1300.8,3074.4 L 1629.6,3074.4 A 36 36 0 0 1 1665.6,3110.4 L 1665.6,3628 A 36 36 0 0 1 1629.6,3664 L 1300.8,3664 A 36 36 0 0 1 1264.8,3628 L 1264.8,3110.4 A 36 36 0 0 1 1300.8,3074.4 Z" fill="#ffffff" stroke="#a8a29a" stroke-width="7.86"/>
<path d="M 4527,4050 L 5073,4050 A 27 27 0 0 1 5100,4077 L 5100,4473 A 27 27 0 0 1 5073,4500 L 4527,4500 A 27 27 0 0 1 4500,4473 L 4500,4077 A 27 27 0 0 1 4527,4050 Z" fill="#f4f2ee" stroke="#6c6864" stroke-width="10.88"/>
<path d="M 5028,4311 A 120.17 120.17 0 0 1 4974.79,4410.79 A 313.68 313.68 0 0 1 4625.21,4410.79 A 120.17 120.17 0 0 1 4572,4311 A 120.17 120.17 0 0 1 4625.21,4211.21 A 313.68 313.68 0 0 1 4974.79,4211.21 A 120.17 120.17 0 0 1 5028,4311 Z" fill="#ffffff" stroke="#6c6864" stroke-width="10.88"/>
<path d="M 4997.4,4311 A 92.52 92.52 0 0 1 4953.63,4389.63 A 291.54 291.54 0 0 1 4646.37,4389.63 A 92.52 92.52 0 0 1 4602.6,4311 A 92.52 92.52 0 0 1 4646.37,4232.37 A 291.54 291.54 0 0 1 4953.63,4232.37 A 92.52 92.52 0 0 1 4997.4,4311 Z" fill="#ffffff" stroke="#a8a29a" stroke-width="7.86"/>
<circle cx="4800" cy="4101.75" r="15.75" fill="#a8a29a" stroke="#a8a29a" stroke-width="7.86"/>
<line x1="4800" y1="4101.75" x2="4800" y2="4189.5" stroke="#a8a29a" stroke-width="7.86"/>
<circle cx="4800" cy="4326.3" r="13.5" fill="#a8a29a" stroke="#a8a29a" stroke-width="7.86"/>
<path d="M 5046.48,6500 L 4753.52,6500 A 23.52 23.52 0 0 1 4730,6476.48 L 4730,6355.52 A 23.52 23.52 0 0 1 4753.52,6332 L 5046.48,6332 A 23.52 23.52 0 0 1 5070,6355.52 L 5070,6476.48 A 23.52 23.52 0 0 1 5046.48,6500 Z" fill="#f4f2ee" stroke="#6c6864" stroke-width="10.88"/>
<path d="M 4900,5838.5 A 121.51 121.51 0 0 1 5002.98,5895.52 A 373.97 373.97 0 0 1 5002.98,6292.48 A 121.51 121.51 0 0 1 4900,6349.5 A 121.51 121.51 0 0 1 4797.02,6292.48 A 373.97 373.97 0 0 1 4797.02,5895.52 A 121.51 121.51 0 0 1 4900,5838.5 Z" fill="#ffffff" stroke="#6c6864" stroke-width="10.88"/>
<path d="M 4900,5876.9 A 91.53 91.53 0 0 1 4977.99,5920.51 A 294.71 294.71 0 0 1 4977.99,6229.09 A 91.53 91.53 0 0 1 4900,6272.7 A 91.53 91.53 0 0 1 4822.01,6229.09 A 294.71 294.71 0 0 1 4822.01,5920.51 A 91.53 91.53 0 0 1 4900,5876.9 Z" fill="#ffffff" stroke="#a8a29a" stroke-width="7.86"/>
<line x1="4968" y1="6317.18" x2="4968" y2="6287.53" stroke="#a8a29a" stroke-width="7.86"/>
<line x1="4832" y1="6317.18" x2="4832" y2="6287.53" stroke="#a8a29a" stroke-width="7.86"/>
<circle cx="4900" cy="6416" r="16" fill="#a8a29a" stroke="#a8a29a" stroke-width="7.86"/>
</g>
<g id="A-WALL" inkscape:groupmode="layer" inkscape:label="A-WALL">
<path d="M -100,-100 L 5300,-100 L 5300,5000 L 5100,5000 L 5100,4050 L 3650,4050 L 3650,4750 L 3550,4750 L 3550,2450 L 3650,2450 L 3650,3950 L 5100,3950 L 5100,100 L 3650,100 L 3650,1550 L 3550,1550 L 3550,100 L 100,100 L 100,1800 L -100,1800 Z M -100,3400 L 100,3400 L 100,6500 L 500,6500 L 500,6700 L -100,6700 Z M 1700,6500 L 2150,6500 L 2150,6700 L 1700,6700 Z M 3050,6500 L 3550,6500 L 3550,5550 L 3650,5550 L 3650,6500 L 5100,6500 L 5100,5600 L 5300,5600 L 5300,6700 L 3050,6700 Z" fill="url(#poche)" fill-rule="nonzero"/>
<path d="M -100,-100 L 5300,-100 L 5300,5000 L 5100,5000 L 5100,4050 L 3650,4050 L 3650,4750 L 3550,4750 L 3550,2450 L 3650,2450 L 3650,3950 L 5100,3950 L 5100,100 L 3650,100 L 3650,1550 L 3550,1550 L 3550,100 L 100,100 L 100,1800 L -100,1800 Z M -100,3400 L 100,3400 L 100,6500 L 500,6500 L 500,6700 L -100,6700 Z M 1700,6500 L 2150,6500 L 2150,6700 L 1700,6700 Z M 3050,6500 L 3550,6500 L 3550,5550 L 3650,5550 L 3650,6500 L 5100,6500 L 5100,5600 L 5300,5600 L 5300,6700 L 3050,6700 Z" fill="none" stroke="#1b1b1b" stroke-width="19.04" stroke-linejoin="miter" stroke-miterlimit="4"/>
</g>
<g id="A-DOOR" inkscape:groupmode="layer" inkscape:label="A-DOOR">
<polygon points="3050,6500 2150,6500 2150,6700 3050,6700" fill="none"/>
<polygon points="3050,6600 3050,5700 3010,5700.89 3010,6600" fill="#ffffff" stroke="#555555" stroke-width="14.14"/>
<path d="M 3050,5700 A 900 900 0 0 0 2150,6600" fill="none" stroke="#555555" stroke-width="7.86"/>
<polygon points="3550,1550 3550,2450 3650,2450 3650,1550" fill="none"/>
<line x1="3585" y1="1550" x2="3585" y2="2450" stroke="#555555" stroke-width="7.86"/>
<line x1="3615" y1="1550" x2="3615" y2="2450" stroke="#555555" stroke-width="7.86"/>
<polygon points="3625,1550 3625,2045 3605,2045 3605,1550" fill="#ffffff" stroke="#555555" stroke-width="14.14"/>
<polygon points="3595,1752.5 3595,2247.5 3575,2247.5 3575,1752.5" fill="#ffffff" stroke="#555555" stroke-width="14.14"/>
<polygon points="3550,4750 3550,5550 3650,5550 3650,4750" fill="none"/>
<line x1="3587.5" y1="5550" x2="3587.5" y2="6350" stroke="#555555" stroke-width="10.88" stroke-dasharray="65.28 43.52"/>
<line x1="3612.5" y1="5550" x2="3612.5" y2="6350" stroke="#555555" stroke-width="10.88" stroke-dasharray="65.28 43.52"/>
<polygon points="3612.5,5155 3612.5,5945 3587.5,5945 3587.5,5155" fill="#ffffff" stroke="#555555" stroke-width="14.14"/>
</g>
<g id="A-GLAZ" inkscape:groupmode="layer" inkscape:label="A-GLAZ">
<polygon points="119.04,3400 119.04,1800 -119.04,1800 -119.04,3400" fill="#ffffff"/>
<line x1="100" y1="3400" x2="100" y2="1800" stroke="#1b1b1b" stroke-width="10.88"/>
<line x1="-100" y1="3400" x2="-100" y2="1800" stroke="#1b1b1b" stroke-width="10.88"/>
<line x1="25" y1="3400" x2="25" y2="1800" stroke="#3a6ea5" stroke-width="10.88"/>
<line x1="-25" y1="3400" x2="-25" y2="1800" stroke="#3a6ea5" stroke-width="10.88"/>
<polygon points="-100,3440 -140,3440 -140,1760 -100,1760" fill="none" stroke="#1b1b1b" stroke-width="10.88"/>
<polygon points="1700,6480.96 500,6480.96 500,6719.04 1700,6719.04" fill="#ffffff"/>
<line x1="1700" y1="6500" x2="500" y2="6500" stroke="#1b1b1b" stroke-width="10.88"/>
<line x1="1700" y1="6700" x2="500" y2="6700" stroke="#1b1b1b" stroke-width="10.88"/>
<line x1="1700" y1="6575" x2="500" y2="6575" stroke="#3a6ea5" stroke-width="10.88"/>
<line x1="1700" y1="6625" x2="500" y2="6625" stroke="#3a6ea5" stroke-width="10.88"/>
<polygon points="1740,6700 1740,6740 460,6740 460,6700" fill="none" stroke="#1b1b1b" stroke-width="10.88"/>
<polygon points="5080.96,5000 5080.96,5600 5319.04,5600 5319.04,5000" fill="#ffffff"/>
<line x1="5100" y1="5000" x2="5100" y2="5600" stroke="#1b1b1b" stroke-width="10.88"/>
<line x1="5300" y1="5000" x2="5300" y2="5600" stroke="#1b1b1b" stroke-width="10.88"/>
<line x1="5175" y1="5000" x2="5175" y2="5600" stroke="#3a6ea5" stroke-width="10.88"/>
<line x1="5225" y1="5000" x2="5225" y2="5600" stroke="#3a6ea5" stroke-width="10.88"/>
<polygon points="5300,4960 5340,4960 5340,5640 5300,5640" fill="none" stroke="#1b1b1b" stroke-width="10.88"/>
</g>
<g id="A-ANNO-TEXT" inkscape:groupmode="layer" inkscape:label="A-ANNO-TEXT">
<text x="1800" y="2269.2" font-size="204" fill="#222222" text-anchor="middle" dominant-baseline="central" font-weight="600">Living / Sleep / Kitchen</text>
<text x="1800" y="2493.6" font-size="149.6" fill="#7a7a7a" text-anchor="middle" dominant-baseline="central">23.8 m²</text>
<text x="4400" y="1359.2" font-size="204" fill="#222222" text-anchor="middle" dominant-baseline="central" font-weight="600">Wardrobe</text>
<text x="4400" y="1583.6" font-size="149.6" fill="#7a7a7a" text-anchor="middle" dominant-baseline="central">6.4 m²</text>
<text x="4400" y="5259.2" font-size="204" fill="#222222" text-anchor="middle" dominant-baseline="central" font-weight="600">Bath</text>
<text x="4400" y="5483.6" font-size="149.6" fill="#7a7a7a" text-anchor="middle" dominant-baseline="central">4.2 m²</text>
</g>
<g id="A-ANNO-DIMS" inkscape:groupmode="layer" inkscape:label="A-ANNO-DIMS">
<line x1="-100" y1="6700" x2="-100" y2="6863.2" stroke="#0E5484" stroke-width="7.62"/>
<line x1="500" y1="6700" x2="500" y2="6863.2" stroke="#0E5484" stroke-width="7.62"/>
<line x1="-100" y1="6863.2" x2="500" y2="6863.2" stroke="#0E5484" stroke-width="10.88"/>
<line x1="-42.3" y1="6920.9" x2="-157.7" y2="6805.5" stroke="#0E5484" stroke-width="10.88"/>
<line x1="557.7" y1="6920.9" x2="442.3" y2="6805.5" stroke="#0E5484" stroke-width="10.88"/>
<text x="200" y="6958.4" font-size="136" fill="#0E5484" text-anchor="middle" dominant-baseline="central" transform="rotate(0 200 6958.4)">600</text>
<line x1="500" y1="6700" x2="500" y2="6863.2" stroke="#0E5484" stroke-width="7.62"/>
<line x1="1700" y1="6700" x2="1700" y2="6863.2" stroke="#0E5484" stroke-width="7.62"/>
<line x1="500" y1="6863.2" x2="1700" y2="6863.2" stroke="#0E5484" stroke-width="10.88"/>
<line x1="557.7" y1="6920.9" x2="442.3" y2="6805.5" stroke="#0E5484" stroke-width="10.88"/>
<line x1="1757.7" y1="6920.9" x2="1642.3" y2="6805.5" stroke="#0E5484" stroke-width="10.88"/>
<text x="1100" y="6958.4" font-size="136" fill="#0E5484" text-anchor="middle" dominant-baseline="central" transform="rotate(0 1100 6958.4)">1200</text>
<line x1="1700" y1="6700" x2="1700" y2="6863.2" stroke="#0E5484" stroke-width="7.62"/>
<line x1="2150" y1="6700" x2="2150" y2="6863.2" stroke="#0E5484" stroke-width="7.62"/>
<line x1="1700" y1="6863.2" x2="2150" y2="6863.2" stroke="#0E5484" stroke-width="10.88"/>
<line x1="1757.7" y1="6920.9" x2="1642.3" y2="6805.5" stroke="#0E5484" stroke-width="10.88"/>
<line x1="2207.7" y1="6920.9" x2="2092.3" y2="6805.5" stroke="#0E5484" stroke-width="10.88"/>
<text x="1925" y="6958.4" font-size="136" fill="#0E5484" text-anchor="middle" dominant-baseline="central" transform="rotate(0 1925 6958.4)">450</text>
<line x1="2150" y1="6700" x2="2150" y2="6863.2" stroke="#0E5484" stroke-width="7.62"/>
<line x1="3050" y1="6700" x2="3050" y2="6863.2" stroke="#0E5484" stroke-width="7.62"/>
<line x1="2150" y1="6863.2" x2="3050" y2="6863.2" stroke="#0E5484" stroke-width="10.88"/>
<line x1="2207.7" y1="6920.9" x2="2092.3" y2="6805.5" stroke="#0E5484" stroke-width="10.88"/>
<line x1="3107.7" y1="6920.9" x2="2992.3" y2="6805.5" stroke="#0E5484" stroke-width="10.88"/>
<text x="2600" y="6958.4" font-size="136" fill="#0E5484" text-anchor="middle" dominant-baseline="central" transform="rotate(0 2600 6958.4)">900</text>
<line x1="3050" y1="6700" x2="3050" y2="6863.2" stroke="#0E5484" stroke-width="7.62"/>
<line x1="5300" y1="6700" x2="5300" y2="6863.2" stroke="#0E5484" stroke-width="7.62"/>
<line x1="3050" y1="6863.2" x2="5300" y2="6863.2" stroke="#0E5484" stroke-width="10.88"/>
<line x1="3107.7" y1="6920.9" x2="2992.3" y2="6805.5" stroke="#0E5484" stroke-width="10.88"/>
<line x1="5357.7" y1="6920.9" x2="5242.3" y2="6805.5" stroke="#0E5484" stroke-width="10.88"/>
<text x="4175" y="6958.4" font-size="136" fill="#0E5484" text-anchor="middle" dominant-baseline="central" transform="rotate(0 4175 6958.4)">2250</text>
<line x1="0" y1="6700" x2="0" y2="7162.4" stroke="#0E5484" stroke-width="7.62"/>
<line x1="3600" y1="6700" x2="3600" y2="7162.4" stroke="#0E5484" stroke-width="7.62"/>
<line x1="0" y1="7162.4" x2="3600" y2="7162.4" stroke="#0E5484" stroke-width="10.88"/>
<line x1="57.7" y1="7220.1" x2="-57.7" y2="7104.7" stroke="#0E5484" stroke-width="10.88"/>
<line x1="3657.7" y1="7220.1" x2="3542.3" y2="7104.7" stroke="#0E5484" stroke-width="10.88"/>
<text x="1800" y="7257.6" font-size="136" fill="#0E5484" text-anchor="middle" dominant-baseline="central" transform="rotate(0 1800 7257.6)">3600</text>
<line x1="3600" y1="6700" x2="3600" y2="7162.4" stroke="#0E5484" stroke-width="7.62"/>
<line x1="5200" y1="6700" x2="5200" y2="7162.4" stroke="#0E5484" stroke-width="7.62"/>
<line x1="3600" y1="7162.4" x2="5200" y2="7162.4" stroke="#0E5484" stroke-width="10.88"/>
<line x1="3657.7" y1="7220.1" x2="3542.3" y2="7104.7" stroke="#0E5484" stroke-width="10.88"/>
<line x1="5257.7" y1="7220.1" x2="5142.3" y2="7104.7" stroke="#0E5484" stroke-width="10.88"/>
<text x="4400" y="7257.6" font-size="136" fill="#0E5484" text-anchor="middle" dominant-baseline="central" transform="rotate(0 4400 7257.6)">1600</text>
<line x1="-100" y1="6700" x2="-100" y2="7461.6" stroke="#0E5484" stroke-width="7.62"/>
<line x1="5300" y1="6700" x2="5300" y2="7461.6" stroke="#0E5484" stroke-width="7.62"/>
<line x1="-100" y1="7461.6" x2="5300" y2="7461.6" stroke="#0E5484" stroke-width="10.88"/>
<line x1="-42.3" y1="7519.3" x2="-157.7" y2="7403.9" stroke="#0E5484" stroke-width="10.88"/>
<line x1="5357.7" y1="7519.3" x2="5242.3" y2="7403.9" stroke="#0E5484" stroke-width="10.88"/>
<text x="2600" y="7556.8" font-size="136" fill="#0E5484" text-anchor="middle" dominant-baseline="central" transform="rotate(0 2600 7556.8)">5400</text>
<line x1="-100" y1="-100" x2="-263.2" y2="-100" stroke="#0E5484" stroke-width="7.62"/>
<line x1="-100" y1="1800" x2="-263.2" y2="1800" stroke="#0E5484" stroke-width="7.62"/>
<line x1="-263.2" y1="-100" x2="-263.2" y2="1800" stroke="#0E5484" stroke-width="10.88"/>
<line x1="-320.9" y1="-42.3" x2="-205.5" y2="-157.7" stroke="#0E5484" stroke-width="10.88"/>
<line x1="-320.9" y1="1857.7" x2="-205.5" y2="1742.3" stroke="#0E5484" stroke-width="10.88"/>
<text x="-358.4" y="850" font-size="136" fill="#0E5484" text-anchor="middle" dominant-baseline="central" transform="rotate(90 -358.4 850)">1900</text>
<line x1="-100" y1="1800" x2="-263.2" y2="1800" stroke="#0E5484" stroke-width="7.62"/>
<line x1="-100" y1="3400" x2="-263.2" y2="3400" stroke="#0E5484" stroke-width="7.62"/>
<line x1="-263.2" y1="1800" x2="-263.2" y2="3400" stroke="#0E5484" stroke-width="10.88"/>
<line x1="-320.9" y1="1857.7" x2="-205.5" y2="1742.3" stroke="#0E5484" stroke-width="10.88"/>
<line x1="-320.9" y1="3457.7" x2="-205.5" y2="3342.3" stroke="#0E5484" stroke-width="10.88"/>
<text x="-358.4" y="2600" font-size="136" fill="#0E5484" text-anchor="middle" dominant-baseline="central" transform="rotate(90 -358.4 2600)">1600</text>
<line x1="-100" y1="3400" x2="-263.2" y2="3400" stroke="#0E5484" stroke-width="7.62"/>
<line x1="-100" y1="6700" x2="-263.2" y2="6700" stroke="#0E5484" stroke-width="7.62"/>
<line x1="-263.2" y1="3400" x2="-263.2" y2="6700" stroke="#0E5484" stroke-width="10.88"/>
<line x1="-320.9" y1="3457.7" x2="-205.5" y2="3342.3" stroke="#0E5484" stroke-width="10.88"/>
<line x1="-320.9" y1="6757.7" x2="-205.5" y2="6642.3" stroke="#0E5484" stroke-width="10.88"/>
<text x="-358.4" y="5050" font-size="136" fill="#0E5484" text-anchor="middle" dominant-baseline="central" transform="rotate(90 -358.4 5050)">3300</text>
<line x1="-100" y1="0" x2="-562.4" y2="0" stroke="#0E5484" stroke-width="7.62"/>
<line x1="-100" y1="4000" x2="-562.4" y2="4000" stroke="#0E5484" stroke-width="7.62"/>
<line x1="-562.4" y1="0" x2="-562.4" y2="4000" stroke="#0E5484" stroke-width="10.88"/>
<line x1="-620.1" y1="57.7" x2="-504.7" y2="-57.7" stroke="#0E5484" stroke-width="10.88"/>
<line x1="-620.1" y1="4057.7" x2="-504.7" y2="3942.3" stroke="#0E5484" stroke-width="10.88"/>
<text x="-657.6" y="2000" font-size="136" fill="#0E5484" text-anchor="middle" dominant-baseline="central" transform="rotate(90 -657.6 2000)">4000</text>
<line x1="-100" y1="4000" x2="-562.4" y2="4000" stroke="#0E5484" stroke-width="7.62"/>
<line x1="-100" y1="6600" x2="-562.4" y2="6600" stroke="#0E5484" stroke-width="7.62"/>
<line x1="-562.4" y1="4000" x2="-562.4" y2="6600" stroke="#0E5484" stroke-width="10.88"/>
<line x1="-620.1" y1="4057.7" x2="-504.7" y2="3942.3" stroke="#0E5484" stroke-width="10.88"/>
<line x1="-620.1" y1="6657.7" x2="-504.7" y2="6542.3" stroke="#0E5484" stroke-width="10.88"/>
<text x="-657.6" y="5300" font-size="136" fill="#0E5484" text-anchor="middle" dominant-baseline="central" transform="rotate(90 -657.6 5300)">2600</text>
<line x1="-100" y1="-100" x2="-861.6" y2="-100" stroke="#0E5484" stroke-width="7.62"/>
<line x1="-100" y1="6700" x2="-861.6" y2="6700" stroke="#0E5484" stroke-width="7.62"/>
<line x1="-861.6" y1="-100" x2="-861.6" y2="6700" stroke="#0E5484" stroke-width="10.88"/>
<line x1="-919.3" y1="-42.3" x2="-803.9" y2="-157.7" stroke="#0E5484" stroke-width="10.88"/>
<line x1="-919.3" y1="6757.7" x2="-803.9" y2="6642.3" stroke="#0E5484" stroke-width="10.88"/>
<text x="-956.8" y="3300" font-size="136" fill="#0E5484" text-anchor="middle" dominant-baseline="central" transform="rotate(90 -956.8 3300)">6800</text>
<line x1="5300" y1="5000" x2="5463.2" y2="5000" stroke="#0E5484" stroke-width="7.62"/>
<line x1="5300" y1="-100" x2="5463.2" y2="-100" stroke="#0E5484" stroke-width="7.62"/>
<line x1="5463.2" y1="5000" x2="5463.2" y2="-100" stroke="#0E5484" stroke-width="10.88"/>
<line x1="5520.9" y1="4942.3" x2="5405.5" y2="5057.7" stroke="#0E5484" stroke-width="10.88"/>
<line x1="5520.9" y1="-157.7" x2="5405.5" y2="-42.3" stroke="#0E5484" stroke-width="10.88"/>
<text x="5558.4" y="2450" font-size="136" fill="#0E5484" text-anchor="middle" dominant-baseline="central" transform="rotate(-90 5558.4 2450)">5100</text>
<line x1="5300" y1="5600" x2="5463.2" y2="5600" stroke="#0E5484" stroke-width="7.62"/>
<line x1="5300" y1="5000" x2="5463.2" y2="5000" stroke="#0E5484" stroke-width="7.62"/>
<line x1="5463.2" y1="5600" x2="5463.2" y2="5000" stroke="#0E5484" stroke-width="10.88"/>
<line x1="5520.9" y1="5542.3" x2="5405.5" y2="5657.7" stroke="#0E5484" stroke-width="10.88"/>
<line x1="5520.9" y1="4942.3" x2="5405.5" y2="5057.7" stroke="#0E5484" stroke-width="10.88"/>
<text x="5558.4" y="5300" font-size="136" fill="#0E5484" text-anchor="middle" dominant-baseline="central" transform="rotate(-90 5558.4 5300)">600</text>
<line x1="5300" y1="6700" x2="5463.2" y2="6700" stroke="#0E5484" stroke-width="7.62"/>
<line x1="5300" y1="5600" x2="5463.2" y2="5600" stroke="#0E5484" stroke-width="7.62"/>
<line x1="5463.2" y1="6700" x2="5463.2" y2="5600" stroke="#0E5484" stroke-width="10.88"/>
<line x1="5520.9" y1="6642.3" x2="5405.5" y2="6757.7" stroke="#0E5484" stroke-width="10.88"/>
<line x1="5520.9" y1="5542.3" x2="5405.5" y2="5657.7" stroke="#0E5484" stroke-width="10.88"/>
<text x="5558.4" y="6150" font-size="136" fill="#0E5484" text-anchor="middle" dominant-baseline="central" transform="rotate(-90 5558.4 6150)">1100</text>
<line x1="5300" y1="4000" x2="5762.4" y2="4000" stroke="#0E5484" stroke-width="7.62"/>
<line x1="5300" y1="0" x2="5762.4" y2="0" stroke="#0E5484" stroke-width="7.62"/>
<line x1="5762.4" y1="4000" x2="5762.4" y2="0" stroke="#0E5484" stroke-width="10.88"/>
<line x1="5820.1" y1="3942.3" x2="5704.7" y2="4057.7" stroke="#0E5484" stroke-width="10.88"/>
<line x1="5820.1" y1="-57.7" x2="5704.7" y2="57.7" stroke="#0E5484" stroke-width="10.88"/>
<text x="5857.6" y="2000" font-size="136" fill="#0E5484" text-anchor="middle" dominant-baseline="central" transform="rotate(-90 5857.6 2000)">4000</text>
<line x1="5300" y1="6600" x2="5762.4" y2="6600" stroke="#0E5484" stroke-width="7.62"/>
<line x1="5300" y1="4000" x2="5762.4" y2="4000" stroke="#0E5484" stroke-width="7.62"/>
<line x1="5762.4" y1="6600" x2="5762.4" y2="4000" stroke="#0E5484" stroke-width="10.88"/>
<line x1="5820.1" y1="6542.3" x2="5704.7" y2="6657.7" stroke="#0E5484" stroke-width="10.88"/>
<line x1="5820.1" y1="3942.3" x2="5704.7" y2="4057.7" stroke="#0E5484" stroke-width="10.88"/>
<text x="5857.6" y="5300" font-size="136" fill="#0E5484" text-anchor="middle" dominant-baseline="central" transform="rotate(-90 5857.6 5300)">2600</text>
<line x1="5300" y1="6700" x2="6061.6" y2="6700" stroke="#0E5484" stroke-width="7.62"/>
<line x1="5300" y1="-100" x2="6061.6" y2="-100" stroke="#0E5484" stroke-width="7.62"/>
<line x1="6061.6" y1="6700" x2="6061.6" y2="-100" stroke="#0E5484" stroke-width="10.88"/>
<line x1="6119.3" y1="6642.3" x2="6003.9" y2="6757.7" stroke="#0E5484" stroke-width="10.88"/>
<line x1="6119.3" y1="-157.7" x2="6003.9" y2="-42.3" stroke="#0E5484" stroke-width="10.88"/>
<text x="6156.8" y="3300" font-size="136" fill="#0E5484" text-anchor="middle" dominant-baseline="central" transform="rotate(-90 6156.8 3300)">6800</text>
<line x1="3550" y1="2025" x2="3650" y2="2025" stroke="#0E5484" stroke-width="10.88"/>
<line x1="3607.7" y1="2082.7" x2="3492.3" y2="1967.3" stroke="#0E5484" stroke-width="10.88"/>
<line x1="3707.7" y1="2082.7" x2="3592.3" y2="1967.3" stroke="#0E5484" stroke-width="10.88"/>
<text x="3844.48" y="2025" font-size="136" fill="#0E5484" text-anchor="middle" dominant-baseline="central" transform="rotate(0 3844.48 2025)">100</text>
<line x1="5100" y1="2025" x2="5300" y2="2025" stroke="#0E5484" stroke-width="10.88"/>
<line x1="5157.7" y1="2082.7" x2="5042.3" y2="1967.3" stroke="#0E5484" stroke-width="10.88"/>
<line x1="5357.7" y1="2082.7" x2="5242.3" y2="1967.3" stroke="#0E5484" stroke-width="10.88"/>
<text x="4905.52" y="2025" font-size="136" fill="#0E5484" text-anchor="middle" dominant-baseline="central" transform="rotate(0 4905.52 2025)">200</text>
</g>
<g><polygon points="4994,-1041.8 4841,-552.2 4994,-659.3 5147,-552.2" fill="#333333" transform="rotate(0 4994 -735.8)"/><text x="4994" y="-1183.24" font-size="176.8" fill="#333333" text-anchor="middle" dominant-baseline="central">N</text></g>
<g><rect x="-100" y="8032.8" width="1000" height="95.2" fill="#333333"/><rect x="900" y="8032.8" width="1000" height="95.2" fill="none" stroke="#333333" stroke-width="10.88"/><text x="-100" y="8264" font-size="136" fill="#333333" text-anchor="start" dominant-baseline="central">0</text><text x="1900" y="8264" font-size="136" fill="#333333" text-anchor="middle" dominant-baseline="central">2 m</text></g>
<g><rect x="2988" y="8032.8" width="2312" height="938.4" fill="none" stroke="#333333" stroke-width="10.88"/><text x="3103.6" y="8189.2" font-size="103.36" fill="#888888" dominant-baseline="central">PROJECT</text><text x="5184.4" y="8189.2" font-size="129.2" fill="#333333" text-anchor="end" dominant-baseline="central">Compact Bedsit</text><text x="3103.6" y="8502" font-size="103.36" fill="#888888" dominant-baseline="central">DRAWN BY</text><text x="5184.4" y="8502" font-size="129.2" fill="#333333" text-anchor="end" dominant-baseline="central">ArchCanvas</text><line x1="2988" y1="8345.6" x2="5300" y2="8345.6" stroke="#333333" stroke-width="5.44"/><text x="3103.6" y="8814.8" font-size="103.36" fill="#888888" dominant-baseline="central">SCALE</text><text x="5184.4" y="8814.8" font-size="129.2" fill="#333333" text-anchor="end" dominant-baseline="central">1:50</text><line x1="2988" y1="8658.4" x2="5300" y2="8658.4" stroke="#333333" stroke-width="5.44"/></g>
</svg>